<?xml version="1.0" encoding="iso-8859-1"?>
<!-- Generator: Adobe Illustrator 18.0.0, SVG Export Plug-In . SVG Version: 6.00 Build 0)  -->
<!DOCTYPE svg PUBLIC "-//W3C//DTD SVG 1.1//EN" "http://www.w3.org/Graphics/SVG/1.1/DTD/svg11.dtd">
<svg version="1.1" id="Capa_1" xmlns="http://www.w3.org/2000/svg" xmlns:xlink="http://www.w3.org/1999/xlink" x="0px" y="0px"
	 viewBox="0 0 283.861 283.861" style="enable-background:new 0 0 283.861 283.861;" xml:space="preserve">
<g>
	<g>
		<path d="M218.122,29.892C199.046,10.615,171.986,0,141.928,0C84.349,0,37.507,46.845,37.507,104.424v106.188
			c0,45.182,21.838,73.249,56.991,73.249c49.645,0,66.442-35.544,75.469-54.644l0.218-0.462
			c9.105-19.26,20.667-27.337,32.907-35.889c20.966-14.648,42.645-29.796,43.256-88.292
			C246.659,74.691,236.899,48.866,218.122,29.892z M194.501,180.571c-12.688,8.864-27.068,18.911-37.88,41.778l-0.219,0.463
			c-8.666,18.338-21.762,46.049-61.904,46.049c-26.686,0-41.991-21.23-41.991-58.249V104.424C52.507,55.115,92.621,15,141.928,15
			c26.022,0,49.295,9.036,65.532,25.442c15.897,16.064,24.157,38.187,23.888,63.977
			C230.818,155.196,213.988,166.955,194.501,180.571z"/>
	</g>
	<g>
		<path d="M188.199,83.056c1.866,3.698,6.377,5.181,10.075,3.315c3.697-1.866,5.182-6.377,3.315-10.075
			c-3.063-6.066-7.028-11.581-11.786-16.389c-13.121-13.258-31.69-20.559-52.29-20.559c-19.085,0-37.863,9.285-51.52,25.476
			c-13.472,15.971-19.409,35.589-16.291,53.824c1.638,9.579,9.912,13.357,17.213,16.69c7.086,3.236,13.778,6.292,17.13,14.005
			c3.826,8.805,3.45,16.513-9.22,34.21c-2.411,3.368-1.635,8.054,1.732,10.465c1.323,0.946,2.849,1.402,4.359,1.402
			c2.338,0,4.641-1.09,6.105-3.135c12.308-17.193,18.405-31.374,10.78-48.921c-5.645-12.989-16.634-18.007-24.657-21.671
			c-4.109-1.876-8.357-3.816-8.658-5.573c-2.336-13.666,2.513-29.227,12.972-41.625c10.8-12.804,25.399-20.147,40.054-20.147
			c16.563,0,31.347,5.722,41.628,16.109C182.797,74.151,185.844,78.39,188.199,83.056z"/>
	</g>
	<g>
		<path d="M201.74,99.92c-4.143,0-7.5,3.357-7.5,7.5c0,19.313-3.824,29.165-14.111,36.353c-3.396,2.372-4.225,7.048-1.852,10.443
			c1.458,2.087,3.787,3.205,6.154,3.205c1.482,0,2.981-0.439,4.289-1.354c18.033-12.601,20.52-30.827,20.52-48.647
			C209.24,103.277,205.883,99.92,201.74,99.92z"/>
	</g>
</g>
<g>
</g>
<g>
</g>
<g>
</g>
<g>
</g>
<g>
</g>
<g>
</g>
<g>
</g>
<g>
</g>
<g>
</g>
<g>
</g>
<g>
</g>
<g>
</g>
<g>
</g>
<g>
</g>
<g>
</g>
</svg>
