<?xml version="1.0" encoding="utf-8"?>
<!-- Generator: Adobe Illustrator 19.1.0, SVG Export Plug-In . SVG Version: 6.00 Build 0)  -->
<svg version="1.1" id="Layer_1" xmlns="http://www.w3.org/2000/svg" xmlns:xlink="http://www.w3.org/1999/xlink" x="0px" y="0px"
	 viewBox="0 0 64 64" enable-background="new 0 0 64 64" xml:space="preserve">
<path id="Graduate_1_" d="M63.8944817,51.1680756l-3.3408012-6.6836014v-19.038599c0-0.2087002-0.0788002-0.3915997-0.1881981-0.552
	c-0.0103035-0.0174999-0.0225029-0.0331993-0.0337029-0.0499992c-0.0329971-0.0427017-0.0602989-0.0877018-0.0993996-0.1245003
	c-0.071701-0.0774002-0.1517868-0.1480007-0.2469978-0.200201L30.7333813,8.4287748c-0.300787-0.165-0.6641006-0.165-0.9647884,0
	L0.5175935,24.5191746c-0.3115113,0.1714001-0.5088113,0.4966011-0.5176113,0.8525009
	c-0.0078,0.3564987,0.1738,0.6899986,0.4776113,0.8759995l13.2623882,8.1233006c0,0.0032005-0.0016994,0.0056-0.0016994,0.0056
	v15.5155983c0,0.3472023,0.1796999,0.6695023,0.4755993,0.8516006c5.3573999,3.3008003,10.7333994,4.9512024,16.0918007,4.9512024
	c5.3603001-0.0005035,10.7021008-1.6519012,15.9882984-4.9546013c0.2919998-0.1826019,0.4696999-0.5033989,0.4696999-0.8482018
	V34.3794746c0,0-0.0016975-0.0052986-0.0016975-0.0083008l11.7916985-7.2220993v17.3353996l-3.342701,6.6836014
	c-0.1553001,0.3101006-0.1386986,0.6781998,0.0438995,0.9730988c0.1816025,0.2945023,0.5039024,0.4742012,0.8506012,0.4742012
	h6.8945007c0.3466988,0,0.6679993-0.1791992,0.8506126-0.4742012
	C64.0331802,51.8462753,64.0497818,51.4781761,63.8944817,51.1680756z M44.7636795,49.3335762
	c-9.6913986,5.8696976-19.197298,5.8681984-29.0253983-0.0044022V35.5950737l13.9901991,8.5690994
	c0.1602001,0.0986023,0.3418007,0.1475029,0.522501,0.1475029c0.1806984,0,0.362299-0.0494003,0.5224991-0.1475029
	l13.9901981-8.5688972V49.3335762z M30.2509823,42.1387749l-27.2607994-16.6973l27.2607994-14.9955997l27.2616978,14.9955997
	L30.2509823,42.1387749z M57.7235947,50.6153755l1.8300858-3.658699l1.8281021,3.658699H57.7235947z"/>
<g>
</g>
<g>
</g>
<g>
</g>
<g>
</g>
<g>
</g>
<g>
</g>
<g>
</g>
<g>
</g>
<g>
</g>
<g>
</g>
<g>
</g>
<g>
</g>
<g>
</g>
<g>
</g>
<g>
</g>
</svg>
